<?xml version="1.0" encoding="utf-8"?>
<!-- Generator: Adobe Illustrator 19.2.1, SVG Export Plug-In . SVG Version: 6.00 Build 0)  -->
<svg version="1.1" id="Layer_1" xmlns="http://www.w3.org/2000/svg" xmlns:xlink="http://www.w3.org/1999/xlink" x="0px" y="0px"
	 viewBox="0 0 566.9 566.9" style="enable-background:new 0 0 566.9 566.9;" xml:space="preserve">
<style type="text/css">
	.st0{fill:#FFFFFF;}
</style>
<g>
	<polygon class="st0" points="453.7,266.8 479,229.1 449.3,229.1 430,261.9 410.3,229.1 379.7,229.1 413.6,278.9 407.6,288 209,0 
		203.7,0 404.5,292.6 376.7,334.6 407.1,334.6 429.2,297.3 452.3,334.6 483.7,334.6 445.6,278.9 451,270.8 566.9,438.1 566.9,429.4 
			"/>
	<polygon class="st0" points="71.4,334.6 96.6,334.6 96.6,293.6 137.4,293.6 137.4,272.6 96.6,272.6 96.6,250.9 140.8,250.9 
		140.8,229.1 71.4,229.1 	"/>
	<polygon class="st0" points="239.3,312.4 198.5,312.4 198.5,229.1 172.8,229.1 172.8,334.6 239.3,334.6 	"/>
	<path class="st0" d="M349.4,312.1c2.1-5.2,3.2-11,3.2-17.3v-65.7h-25.5v63.6c0,2.9-0.3,5.6-1,8.2s-1.8,4.9-3.4,6.9
		s-3.6,3.7-6.2,4.8c-2.5,1.2-5.6,1.8-9.2,1.8s-6.6-0.6-9.2-1.8c-2.5-1.2-4.6-2.8-6.1-4.8s-2.7-4.3-3.4-6.9c-0.7-2.6-1.1-5.3-1.1-8.2
		v-63.6h-25.3v65.7c0,6.4,1,12.1,3.1,17.3c2.1,5.2,5.1,9.7,8.9,13.4c3.9,3.7,8.6,6.6,14.1,8.7c5.6,2.1,11.8,3.1,18.8,3.1
		c6.8,0,13.1-1,18.7-3.1s10.4-5,14.4-8.7C344.2,321.8,347.2,317.4,349.4,312.1z"/>
</g>
</svg>
